<svg width="200" height="200" xmlns="http://www.w3.org/2000/svg">
  <path id="svg_1" fill="#898989" d="m100.949336,9.707779l44.213633,85.434843q-19.429,33.072 -38.858,66.145c-0.974,3.017 0,7.782 0,7.782l73.83,0q-9.714,-21.4 -19.429,-42.8l7.768,0l27.2,54.473l-190.4,0l27.2,-54.473l7.772,0l-19.429,42.8l73.83,0l0,-7.782l-38.858,-66.145l39.406945,-74.201973z"/>
  <path id="svg_2" fill="#dddddd" d="m93.851997,128.860677l0,-13.021l12.494,0l0,13.021l-12.494,0zm0,-82.464l12.494,0l0,52.082l-12.494,0l0,-52.082z"/>
</svg>