<?xml version="1.0" standalone="no"?><!DOCTYPE svg PUBLIC "-//W3C//DTD SVG 1.1//EN" "http://www.w3.org/Graphics/SVG/1.1/DTD/svg11.dtd">
<svg t="1719846692089" class="icon" viewBox="0 0 1024 1024" version="1.1" xmlns="http://www.w3.org/2000/svg" p-id="10912" xmlns:xlink="http://www.w3.org/1999/xlink" width="256" height="256">
    <path fill="currentColor" d="M709.546667 230.272c3.754667-5.930667 6.912-12.373333 9.386666-19.242667 17.237333-48.64-7.210667-102.357333-54.613333-120.021333-47.36-17.706667-99.754667 7.381333-116.992 55.978667-17.237333 48.597333 7.210667 102.314667 54.613333 120.021333 32.085333 11.946667 66.56 4.309333 90.752-17.024l157.354667 141.525333a65.450667 65.450667 0 0 0-5.589333 41.088l-68.224 20.565334a307.2 307.2 0 0 0-153.130667-125.44 299.733333 299.733333 0 0 0-263.68 26.325333c-151.338667-19.157333-269.952 11.178667-296.917333 87.125333-38.656 108.970667 126.165333 270.506667 368.085333 360.832 241.962667 90.325333 469.461333 75.221333 508.16-33.706666 23.296-65.706667-27.392-150.613333-124.416-227.413334a321.706667 321.706667 0 0 0-24.746667-64.341333l65.024-19.626667c7.04 10.24 17.066667 18.432 29.44 23.04a61.482667 61.482667 0 0 0 79.317334-37.930666c11.690667-32.938667-4.864-69.376-36.992-81.365334a60.629333 60.629333 0 0 0-60.245334 10.410667l-156.586666-140.8z m97.962666 498.56a321.066667 321.066667 0 0 0 14.506667-150.4c51.712 48.64 76.629333 97.322667 63.274667 135.936-28.458667 82.090667-219.434667 87.424-426.538667 11.861333-207.104-75.52-351.914667-203.306667-323.456-285.397333 16.896-48.768 91.221333-70.4 192.213333-64.128a313.216 313.216 0 0 0-101.888 151.125333c56.064 56.448 142.293333 111.701333 245.248 152.32 128.938667 50.816 253.44 66.56 336.64 48.682667z" p-id="10913"></path>

    <path fill="currentColor" d="M693.205333 882.346667c-80.597333-3.328-174.336-22.570667-270.378666-58.453334-73.344-27.349333-139.605333-61.269333-195.242667-98.304 29.056 86.954667 94.762667 160.128 185.514667 194.005334 97.322667 36.309333 200.96 19.029333 280.106666-37.205334z" p-id="10914">
    </path>
</svg>
